<?xml version="1.0" standalone="no"?>
<!DOCTYPE svg PUBLIC "-//W3C//DTD SVG 20010904//EN"
 "http://www.w3.org/TR/2001/REC-SVG-20010904/DTD/svg10.dtd">
<svg version="1.0" xmlns="http://www.w3.org/2000/svg"
 width="1220.000000pt" height="204.000000pt" viewBox="0 0 1220.000000 204.000000"
 preserveAspectRatio="xMidYMid meet">

<g transform="translate(0.000000,204.000000) scale(0.100000,-0.100000)"
 stroke="none">
<path d="M11868 1458 c-174 -123 -450 -317 -614 -433 -164 -116 -445 -313
-624 -439 -459 -324 -555 -368 -795 -368 l-120 1 -970 244 c-1632 411 -3492
881 -4049 1023 -291 74 -566 140 -610 146 -96 13 -242 6 -346 -17 -43 -9 -341
-122 -705 -266 -1558 -619 -2043 -811 -2520 -1001 l-510 -203 -3 -73 -3 -72
6101 0 6100 0 0 828 c0 455 -4 833 -8 840 -6 9 -94 -48 -324 -210z"/>
</g>
</svg>
